<?xml version="1.0" encoding="UTF-8"?>
<svg id="Layer_2" data-name="Layer 2" xmlns="http://www.w3.org/2000/svg" viewBox="0 0 322.23 447.74">
  <defs>
    <style>
      .cls-1 {
        fill: #c18dbf;
        opacity: 1;
        stroke-width: 0px;
      }
    </style>
  </defs>
  <path class="cls-1" d="M312.39,195.27c-11.11-10.67-16.39-17.17-16.39-27.39s-6.28-26.39-11.61-39.28c-5.33-12.89-24.69-35.49-43.01-45.9-5.31-3.02-10.74-6.09-14.27-8.09-2.11-1.19-2.7-3.95-1.27-5.91,6.03-8.21,20.57-27.75,26.32-33.16,8.67-8.17,9.5-12,2.44-19.83-5.92-6.57-14.02-.82-15.01-.08-.08.06-.17.12-.26.18l-34.83,21.82c-1.18.74-1.9,2.03-1.9,3.43v60.23c0,1.89-1.29,3.52-3.13,3.94-6.49,1.49-22.24,5.97-39.62,17.29-6.8,4.43-12.31,8.6-16.28,11.82-2.78,2.25-6.9.04-6.56-3.52,1.47-15.65,5.95-46.48,19.06-66.02,17.81-26.56,27.11-31.86,35.25-39.5,4.35-4.08,15.31-9.08,6.33-21.42-11.58-15.92-50.75,22.25-50.75,22.25,0,0-34.25,30.61-37.25,36.5-13.68,26.85-26.5,24.86-41,40.75-27.47,30.1-13,11.5-42.06,53.67-29.07,42.18-40.11,119.33-3.11,196.44,35.4,73.77,96.67,89.22,145.33,93.78,41.04,3.84,76.82-16.78,88.4-24.35,2.08-1.36,2.45-4.26.78-6.1-8.03-8.84-29.24-33.41-37.63-55.11-7.86-20.34-11.04-41.89-12.06-50.48-.26-2.14-2.14-3.7-4.29-3.55-11.29.76-43.06,1.98-38.46-8.8s17.6-13.94,20.08-14.35c.26-.04.52-.06.79-.05,5.84.2,79.49,2.51,93.28-6.1,22.82-14.26,27.32-27.55,36.65-46.21,9.33-18.67,7.11-26.22-4-36.89ZM257.77,183.45c-4.61,1.84-10,.36-14.49-1.13-10.89-3.61-18.6-11.08-24.89-20.28-.09-.13-.19-.25-.29-.37-2.35-2.59-3.99-5.52-4.28-8.62-1.17-12.55,16.99-10.22,24.52-8.3,11.93,3.04,21.11,14.77,24.43,26.35,1.43,4.97.18,10.27-5,12.34Z"/>
</svg>