<?xml version="1.0" encoding="utf-8"?>
<!-- Generator: Adobe Illustrator 28.0.0, SVG Export Plug-In . SVG Version: 6.00 Build 0)  -->
<svg version="1.1" xmlns="http://www.w3.org/2000/svg" xmlns:xlink="http://www.w3.org/1999/xlink" x="0px" y="0px"
	 viewBox="0 0 1024 1024" style="enable-background:new 0 0 1024 1024;" >
<style type="text/css">
	.st0{fill:transparent;}
	* { fill: #FFFFFF }
</style>
<g id="Layer_1">
	<g>
		<g>
			<path class="st0" d="M1460.41,1451.35c-653.41,0-1306.81,0-1960.22,0c0-653.41,0-1306.81,0-1960.22c653.41,0,1306.81,0,1960.22,0
				C1460.41,144.54,1460.41,797.94,1460.41,1451.35z M732.05,413.29c-0.6,2.14-1.2,4.29-1.79,6.43c-10.23,0-20.48-0.4-30.68,0.09
				c-15.58,0.74-21.83,9.44-14.33,23.15c5.38,9.83,14.17,18.83,23.5,25.15c9.15,6.19,10.87,12.42,9.96,22.5
				c-3.04,33.73-34.14,65.09-76.06,73.5c-51.44,10.33-102.1,4.69-152.15-9.72c-10.88-3.13-23.17-5.48-26.68,10.13
				c-3.29,14.59,5.95,21.82,18.64,24.82c17.02,4.02,34.16,7.64,51.38,10.68c49.37,8.72,98.12,9.1,145.71-10.13
				c39.35-15.9,61.57-46.17,74.73-84.93c4.42-13.03,8.59-26.49,15.42-38.29c18.13-31.32,11.14-65.69-19.55-84.82
				c-17.65-11-36.55-20.02-54.09-31.18c-6.73-4.28-14.08-11.18-16.3-18.37c-19.61-63.64-49.16-120.05-105.95-159.06
				c-68.01-46.72-141.44-61.68-222.4-43.86c-88.4,19.46-152.57,73.37-205.22,142.75c-36.6,48.23-33.37,127.4,14.87,169.04
				c39.38,33.99,77.46,69.55,117.95,102.14c45.13,36.33,107.09,35.91,142.94-0.26c27.35-27.6,37.01-63.74,39.02-101.53
				c2.66-49.98-12.26-96.5-34.02-140.39c-21.56-43.48-57.29-73.72-101.3-93.52c-6.46-2.91-16.76-1.85-23.15,1.48
				c-3.32,1.73-3.45,12.69-2.38,19.03c2.04,12.1,7.05,23.71,8.94,35.82c8.27,53.09,2.34,102.36-31.24,147.83
				c-18.16,24.58-74.08,26.12-94.01,1.91c-29.45-35.79-34-84.63-6.22-122.4c12.62-17.16,27.84-32.54,42.72-47.9
				c55.33-57.1,122.6-85.27,202.49-84.47c104.81,1.06,193,70.77,217.24,173.42c5.05,21.39,15.75,37.86,35.75,48.43
				C694.94,390.87,713.33,402.39,732.05,413.29z M478.78,896.26c-5.04-3.7-10.5-6.92-15-11.16c-23.18-21.83-47.13-42.96-68.87-66.16
				c-28.86-30.8-55.87-63.34-83.81-95.01c-8.62-9.77-19.74-19.21-31.15-7.3c-9.37,9.78-5.82,22.31,4.01,32.8
				c34.25,36.53,67.32,74.2,102.22,110.1c31.6,32.49,65,63.23,99.32,96.39c49.96-51.56,98.7-101.08,146.03-151.92
				c4.61-4.96,4.25-21.17-0.35-26.64c-8.33-9.9-18.86-5.25-27.98,4.34c-26.17,27.52-53.24,54.16-81.35,82.55
				c-1.89-4.85-3.83-7.28-3.49-9.35c5.43-33.12,8.2-67.07,17.62-99.05c9.99-33.92,27.04-65.71,39.39-99.03
				c2.84-7.66,1.11-18.8-2.63-26.27c-1.6-3.19-14.51-3.13-20.87-0.77c-5.1,1.9-9.61,8.94-11.75,14.68
				c-15.36,41.17-33.52,81.74-43.96,124.18C486.19,809.2,484.48,851.79,478.78,896.26z M899.43,313.58
				c-0.19-3.38,0.22-9.39-1.03-15.03c-2.46-11.12-2.82-25.01-19.79-23.73c-17.96,1.36-14.88,14.93-16.48,27.42
				c-6.18,48.13-9.97,97.04-21.78,143.85c-16.13,63.94-51.77,118.71-95.99,167.6c-9.29,10.27-17.89,21.61-4.36,33.54
				c14.34,12.65,23.57,0.16,32.01-9.85c31.07-36.85,58.79-75.32,78.97-120.02C880.06,452.9,895.35,386.09,899.43,313.58z
				 M812.3,726.71c-30.47-18.41-53.3-16.66-70.75,5.43c-19.4,24.55-17.26,51.69,6.54,76.59c16.6,17.36,33.82,34.11,50.43,51.47
				c6.94,7.25,13.3,9.97,21.27,1.72c20.74-21.46,43.26-41.5,61.7-64.78c8.11-10.24,13.31-28.1,10.68-40.55
				C883.53,715.83,849.51,704.28,812.3,726.71z M165.67,724.31c-18.53-3.57-33.99-11.12-47.16-8.23
				c-39.41,8.62-52.94,55.39-25.88,85.81c18.08,20.33,38.34,38.7,57.1,58.45c8.71,9.16,15.5,6.45,22.86-1.11
				c18.1-18.56,36.06-37.28,54.53-55.47c22.36-22.02,19.07-53.16,1.08-73.54C210.97,710.68,186.63,709.89,165.67,724.31z
				 M665.87,92.8c-19.77,3.2-39.66,5.83-59.27,9.82c-11.04,2.25-20.44,9.27-16.41,21.85c3.66,11.43,12.16,14.2,26.07,12.57
				c29.33-3.45,59.85-6.49,88.73-2.12c55.67,8.43,95.6,43.81,128.91,87.36c6.62,8.65,13.91,19.39,26.94,9.59
				c12.4-9.32,8.61-20.63,1.21-30.89C813.86,134.17,750.24,95.68,665.87,92.8z M241.39,654.99c-3.94-7.27-6.6-12.31-9.37-17.3
				c-22.35-40.23-45.13-80.23-66.84-120.8c-6.99-13.06-9.85-28.37-17.16-41.19c-3.43-6.02-12.93-8.58-19.67-12.71
				c-4.18,7.12-10.23,13.81-11.96,21.48c-1.42,6.28,1.44,14.06,3.95,20.58c5.83,15.14,11.29,30.66,19.22,44.71
				c21.38,37.88,43.41,75.44,66.69,112.16c3.56,5.62,15.22,8.4,22.98,8.13C233.37,669.93,237.21,660.49,241.39,654.99z
				 M877.21,74.49c-12.6-10.99-24.19-16.18-36.69-2.58c-12.35,13.44-8.63,25.66,2.12,37.76c8.2,9.23,15.25,19.78,24.63,27.55
				c4.07,3.37,14.97,4.11,18.86,1.06c11.68-9.16,24.12-19.3,31.02-31.92c4.82-8.83,4.73-24.21,0.16-33.32
				c-5.65-11.28-19.08-11.93-30.74-4.38C883.87,70.41,881.13,72.05,877.21,74.49z M590.5,357.44c0.36-17.49-16.54-34.35-34.85-34.78
				c-16.91-0.39-32.43,14.49-32.93,31.56c-0.54,18.48,15.29,35.37,33.44,35.69C573.68,390.23,590.15,374.65,590.5,357.44z
				 M654.87,736.08c3.61,2.94,14.4,14.24,16.34,12.88c10.79-7.55,20.42-17.5,27.81-28.41c1.22-1.8-9.57-16.1-16.69-18.17
				C670.92,699.06,654.99,716.88,654.87,736.08z M816.75,297.25c-8.08-5.49-16.35-15.45-24.19-15.13
				c-6.76,0.28-19,13.17-18.13,18.84c1.28,8.29,11.07,19.64,19.12,21.5C805.73,325.27,812.85,314.78,816.75,297.25z M264.62,843.45
				c-0.03,3.18-0.05,6.37-0.08,9.55c7.37,4.86,15.98,14.74,21.81,13.31c7.39-1.81,12.52-12.82,18.62-19.87
				c-6.67-5.47-12.92-14.46-20.14-15.33C278.68,830.37,271.4,838.98,264.62,843.45z M683.72,827.03c-2.81,0-5.61,0-8.42-0.01
				c-4.99,6.75-15.13,14.87-13.79,19.94c2.08,7.82,12.02,13.55,18.63,20.16c5.76-6.46,15.25-12.44,16.16-19.52
				C697.11,841.39,688.29,833.93,683.72,827.03z"/>
			<path d="M732.05,413.29c-18.72-10.9-37.11-22.42-56.25-32.53c-20-10.57-30.7-27.04-35.75-48.43
				c-24.24-102.65-112.42-172.36-217.24-173.42c-79.89-0.8-147.16,27.37-202.49,84.47c-14.89,15.36-30.1,30.74-42.72,47.9
				c-27.78,37.77-23.23,86.61,6.22,122.4c19.93,24.21,75.85,22.67,94.01-1.91c33.57-45.46,39.5-94.74,31.24-147.83
				c-1.89-12.11-6.89-23.72-8.94-35.82c-1.07-6.34-0.94-17.3,2.38-19.03c6.38-3.33,16.68-4.39,23.15-1.48
				c44,19.8,79.73,50.04,101.3,93.52c21.76,43.89,36.68,90.41,34.02,140.39c-2.01,37.79-11.67,73.94-39.02,101.53
				c-35.84,36.17-97.8,36.59-142.94,0.26c-40.49-32.59-78.58-68.16-117.95-102.14c-48.24-41.64-51.47-120.82-14.87-169.04
				c52.65-69.38,116.82-123.29,205.22-142.75c80.96-17.82,154.39-2.86,222.4,43.86c56.79,39.01,86.34,95.42,105.95,159.06
				c2.22,7.2,9.57,14.09,16.3,18.37c17.54,11.17,36.44,20.18,54.09,31.18c30.69,19.13,37.68,53.5,19.55,84.82
				c-6.83,11.79-10.99,25.26-15.42,38.29c-13.16,38.76-35.38,69.03-74.73,84.93c-47.6,19.23-96.35,18.86-145.71,10.13
				c-17.22-3.04-34.36-6.65-51.38-10.68c-12.69-3-21.93-10.22-18.64-24.82c3.52-15.61,15.8-13.26,26.68-10.13
				c50.05,14.42,100.71,20.05,152.15,9.72c41.92-8.41,73.03-39.77,76.06-73.5c0.91-10.08-0.81-16.31-9.96-22.5
				c-9.34-6.31-18.12-15.32-23.5-25.15c-7.51-13.71-1.25-22.41,14.33-23.15c10.21-0.49,20.45-0.09,30.68-0.09
				C730.86,417.58,731.45,415.44,732.05,413.29z M243.44,473.02c27.26,18.87,49.52,38.16,75,51.07
				c45.45,23.04,91.43,1.06,102.01-49.02c16.88-79.9-6.78-148.69-64.24-206.15c-1.45-1.45-4.19-1.62-7.06-2.66
				C355,354.69,338.41,430.91,243.44,473.02z"/>
			<path d="M478.78,896.26c5.7-44.47,7.41-87.06,17.38-127.62c10.43-42.44,28.59-83.01,43.96-124.18
				c2.14-5.74,6.65-12.78,11.75-14.68c6.36-2.37,19.28-2.43,20.87,0.77c3.74,7.47,5.47,18.61,2.63,26.27
				c-12.35,33.32-29.4,65.11-39.39,99.03c-9.41,31.98-12.19,65.92-17.62,99.05c-0.34,2.06,1.61,4.5,3.49,9.35
				c28.1-28.39,55.18-55.03,81.35-82.55c9.12-9.59,19.65-14.23,27.98-4.34c4.61,5.47,4.97,21.68,0.35,26.64
				c-47.33,50.84-96.07,100.36-146.03,151.92c-34.32-33.16-67.72-63.89-99.32-96.39c-34.9-35.89-67.97-73.56-102.22-110.1
				c-9.83-10.48-13.38-23.02-4.01-32.8c11.41-11.91,22.53-2.47,31.15,7.3c27.94,31.67,54.95,64.21,83.81,95.01
				c21.74,23.2,45.69,44.33,68.87,66.16C468.28,889.34,473.74,892.55,478.78,896.26z"/>
			<path d="M899.43,313.58c-4.07,72.5-19.37,139.32-48.46,203.78c-20.17,44.7-47.89,83.17-78.97,120.02
				c-8.44,10.01-17.67,22.5-32.01,9.85c-13.53-11.93-4.93-23.27,4.36-33.54c44.22-48.88,79.86-103.66,95.99-167.6
				c11.81-46.82,15.6-95.72,21.78-143.85c1.6-12.49-1.48-26.07,16.48-27.42c16.97-1.28,17.34,12.61,19.79,23.73
				C899.64,304.2,899.23,310.21,899.43,313.58z"/>
			<path d="M812.3,726.71c37.21-22.43,71.23-10.88,79.86,29.87c2.64,12.46-2.57,30.31-10.68,40.55
				c-18.43,23.28-40.95,43.31-61.7,64.78c-7.97,8.25-14.33,5.53-21.27-1.72c-16.6-17.35-33.83-34.11-50.43-51.47
				c-23.8-24.89-25.94-52.03-6.54-76.59C758.99,710.06,781.83,708.31,812.3,726.71z M808.14,825.9
				c19.32-21.51,33.09-35.36,44.78-50.79c3.36-4.44,0.68-13.45,0.77-20.37c-7.46,0.46-15.2-0.13-22.25,1.81
				c-3.65,1-6.19,6.38-9.04,9.93c-7.35,9.18-14.95,9.24-22.94,0.88c-3.6-3.76-6.61-9.13-11.02-10.82
				c-6.25-2.39-13.55-2.06-20.4-2.89c-0.41,7.58-4.04,17.37-0.63,22.33C778.76,792.51,792.63,807.31,808.14,825.9z"/>
			<path d="M165.67,724.31c20.96-14.41,45.3-13.63,62.53,5.9c17.99,20.39,21.29,51.52-1.08,73.54
				c-18.47,18.19-36.43,36.91-54.53,55.47c-7.37,7.55-14.15,10.27-22.86,1.11c-18.76-19.74-39.02-38.12-57.1-58.45
				c-27.06-30.42-13.53-77.19,25.88-85.81C131.68,713.19,147.13,720.74,165.67,724.31z M160.57,823.17
				c16.47-18.26,30.83-32.3,42.48-48.31c3.28-4.51-1.39-14.81-2.41-22.45c-6.84,1.61-15.76,1.03-20.16,5.21
				c-18.85,17.88-17.73,17.66-39.06-0.73c-5.09-4.38-15.94-2.08-24.14-2.85c0.13,7.64-2.79,17.62,0.95,22.49
				C130.34,792.35,144.91,806.3,160.57,823.17z"/>
			<path d="M665.87,92.8c84.38,2.89,147.99,41.37,196.18,108.16c7.4,10.26,11.19,21.57-1.21,30.89c-13.04,9.8-20.32-0.93-26.94-9.59
				c-33.31-43.55-73.24-78.93-128.91-87.36c-28.88-4.37-59.4-1.33-88.73,2.12c-13.9,1.64-22.4-1.14-26.07-12.57
				c-4.03-12.58,5.37-19.6,16.41-21.85C626.21,98.62,646.09,96,665.87,92.8z"/>
			<path d="M241.39,654.99c-4.18,5.5-8.02,14.93-12.17,15.08c-7.76,0.27-19.42-2.52-22.98-8.13
				c-23.28-36.73-45.31-74.28-66.69-112.16c-7.93-14.05-13.39-29.57-19.22-44.71c-2.51-6.52-5.36-14.3-3.95-20.58
				c1.73-7.67,7.78-14.37,11.96-21.48c6.75,4.13,16.24,6.69,19.67,12.71c7.31,12.82,10.18,28.13,17.16,41.19
				c21.71,40.57,44.49,80.57,66.84,120.8C234.79,642.68,237.45,647.72,241.39,654.99z"/>
			<path d="M877.21,74.49c3.92-2.44,6.66-4.08,9.35-5.82c11.66-7.55,25.09-6.9,30.74,4.38c4.57,9.11,4.66,24.49-0.16,33.32
				c-6.9,12.62-19.34,22.76-31.02,31.92c-3.89,3.05-14.78,2.31-18.86-1.06c-9.38-7.77-16.42-18.32-24.63-27.55
				c-10.75-12.1-14.47-24.33-2.12-37.76C853.02,58.31,864.61,63.5,877.21,74.49z"/>
			<path d="M590.5,357.44c-0.36,17.2-16.83,32.78-34.34,32.48c-18.15-0.32-33.98-17.21-33.44-35.69
				c0.5-17.08,16.02-31.95,32.93-31.56C573.96,323.09,590.86,339.95,590.5,357.44z"/>
			<path d="M654.87,736.08c0.12-19.2,16.05-37.02,27.46-33.7c7.12,2.07,17.91,16.37,16.69,18.17
				c-7.39,10.91-17.02,20.86-27.81,28.41C669.27,750.32,658.48,739.02,654.87,736.08z"/>
			<path d="M816.75,297.25c-3.9,17.53-11.01,28.02-23.2,25.21c-8.05-1.86-17.84-13.21-19.12-21.5
				c-0.87-5.67,11.37-18.57,18.13-18.84C800.4,281.8,808.66,291.75,816.75,297.25z"/>
			<path d="M264.62,843.45c6.78-4.47,14.06-13.08,20.21-12.34c7.22,0.87,13.47,9.86,20.14,15.33c-6.1,7.04-11.23,18.05-18.62,19.87
				c-5.83,1.43-14.44-8.45-21.81-13.31C264.57,849.82,264.59,846.64,264.62,843.45z"/>
			<path d="M683.72,827.03c4.57,6.91,13.39,14.36,12.59,20.57c-0.91,7.08-10.4,13.06-16.16,19.52
				c-6.61-6.62-16.55-12.34-18.63-20.16c-1.35-5.07,8.79-13.19,13.79-19.94C678.11,827.02,680.92,827.02,683.72,827.03z"/>
			<path class="st0" d="M243.44,473.02C338.41,430.91,355,354.69,349.14,266.27c2.88,1.03,5.61,1.21,7.06,2.66
				c57.46,57.46,81.12,126.25,64.24,206.15c-10.58,50.09-56.57,72.06-102.01,49.02C292.95,511.18,270.7,491.9,243.44,473.02z"/>
			<path class="st0" d="M808.14,825.9c-15.51-18.59-29.38-33.39-40.73-49.92c-3.41-4.96,0.22-14.75,0.63-22.33
				c6.85,0.83,14.15,0.5,20.4,2.89c4.41,1.69,7.42,7.06,11.02,10.82c7.99,8.35,15.59,8.29,22.94-0.88c2.85-3.55,5.38-8.93,9.04-9.93
				c7.05-1.93,14.79-1.35,22.25-1.81c-0.09,6.92,2.59,15.93-0.77,20.37C841.23,790.54,827.45,804.39,808.14,825.9z"/>
			<path class="st0" d="M160.57,823.17c-15.67-16.87-30.23-30.82-42.35-46.64c-3.74-4.88-0.82-14.85-0.95-22.49
				c8.2,0.77,19.06-1.54,24.14,2.85c21.33,18.39,20.22,18.62,39.06,0.73c4.4-4.18,13.32-3.6,20.16-5.21
				c1.02,7.64,5.7,17.94,2.41,22.45C191.41,790.87,177.04,804.9,160.57,823.17z"/>
		</g>
	</g>
</g>
<g id="Layer_2">
</g>
</svg>
